<?xml version="1.0" encoding="UTF-8" standalone="no"?>
<!DOCTYPE svg PUBLIC "-//W3C//DTD SVG 1.1//EN" "http://www.w3.org/Graphics/SVG/1.1/DTD/svg11.dtd">
<!-- Created with Vectornator (http://vectornator.io/) -->
<svg height="100%" stroke-miterlimit="10" style="fill-rule:nonzero;clip-rule:evenodd;stroke-linecap:round;stroke-linejoin:round;" version="1.1" viewBox="0 0 5120 2280" width="100%" xml:space="preserve" xmlns="http://www.w3.org/2000/svg" xmlns:vectornator="http://vectornator.io" xmlns:xlink="http://www.w3.org/1999/xlink">
<defs/>
<clipPath id="ArtboardFrame">
<rect height="2280" width="5120" x="0" y="0"/>
</clipPath>
<g clip-path="url(#ArtboardFrame)" id="Layer-1" vectornator:layerName="Layer 1">
<g fill="#ffffff" opacity="1" stroke="none" vectornator:layerName="Text 1">
<path d="M2457.68 866.394C2447.68 852.394 2432.68 843.394 2415.68 841.394C2414.68 841.394 2413.68 841.394 2413.68 841.394C2402.68 840.394 2392.68 841.394 2381.68 845.394C2371.68 848.394 2360.68 854.394 2350.68 862.394L2350.68 862.394C2339.68 870.394 2330.68 881.394 2323.68 893.394C2323.68 893.394 2322.68 894.394 2322.68 895.394C2315.68 907.394 2309.68 920.394 2306.68 934.394C2298.68 960.394 2297.68 986.394 2300.68 1012.39C2282.68 1014.39 2262.68 1015.39 2240.68 1014.39C2194.68 1013.39 2146.68 1001.39 2104.68 973.394C2067.68 949.394 2035.68 913.394 2011.68 863.394C2006.68 852.394 1993.68 848.394 1983.68 853.394C1972.68 858.394 1968.68 870.394 1973.68 881.394C2001.68 939.394 2038.68 980.394 2081.68 1008.39C2131.68 1041.39 2187.68 1055.39 2240.68 1056.39C2265.68 1057.39 2287.68 1056.39 2308.68 1054.39C2319.68 1094.39 2337.68 1135.39 2356.68 1177.39C2388.68 1248.39 2422.68 1322.39 2414.68 1399.39L2414.68 1400.39L2414.68 1401.39C2406.68 1475.39 2371.68 1526.39 2324.68 1558.39C2277.68 1590.39 2218.68 1602.39 2165.68 1596.39L2164.68 1596.39C2160.68 1596.39 2155.68 1595.39 2151.68 1595.39C2101.68 1586.39 2062.68 1561.39 2037.68 1527.39C2011.68 1493.39 1999.68 1450.39 2004.68 1409.39C2004.68 1405.39 2005.68 1402.39 2005.68 1399.39C2012.68 1354.39 2034.68 1312.39 2068.68 1284.39C2096.68 1259.39 2134.68 1245.39 2178.68 1249.39C2201.68 1251.39 2224.68 1264.39 2239.68 1285.39C2254.68 1305.39 2263.68 1331.39 2260.68 1360.39C2259.68 1372.39 2268.68 1382.39 2280.68 1383.39C2291.68 1384.39 2301.68 1376.39 2302.68 1364.39C2306.68 1324.39 2293.68 1288.39 2273.68 1260.39C2250.68 1230.39 2216.68 1210.39 2181.68 1207.39C2125.68 1202.39 2077.68 1220.39 2040.68 1252.39C1999.68 1287.39 1973.68 1338.39 1964.68 1391.39C1963.68 1396.39 1962.68 1400.39 1962.68 1404.39C1957.68 1456.39 1972.68 1509.39 2003.68 1552.39C2035.68 1594.39 2083.68 1626.39 2144.68 1636.39C2149.68 1637.39 2154.68 1638.39 2160.68 1638.39L2161.68 1638.39C2223.68 1644.39 2292.68 1630.39 2348.68 1592.39C2404.68 1554.39 2447.68 1493.39 2456.68 1406.39L2456.68 1405.39L2456.68 1403.39C2465.68 1316.39 2429.68 1236.39 2394.68 1160.39C2376.68 1121.39 2359.68 1083.39 2349.68 1046.39C2362.68 1042.39 2374.68 1038.39 2385.68 1032.39C2423.68 1014.39 2449.68 984.394 2464.68 941.394L2464.68 939.394C2465.68 935.394 2466.68 931.394 2467.68 927.394C2468.68 923.394 2468.68 919.394 2469.68 915.394C2470.68 895.394 2466.68 879.394 2457.68 866.394ZM2427.68 911.394C2427.68 914.394 2426.68 917.394 2426.68 919.394C2425.68 922.394 2425.68 925.394 2424.68 928.394C2413.68 959.394 2394.68 981.394 2366.68 995.394C2359.68 998.394 2350.68 1001.39 2342.68 1004.39C2340.68 984.394 2341.68 964.394 2346.68 945.394C2349.68 935.394 2353.68 925.394 2358.68 917.394L2359.68 915.394C2364.68 907.394 2370.68 900.394 2376.68 895.394C2382.68 890.394 2388.68 887.394 2395.68 885.394C2400.68 883.394 2405.68 882.394 2409.68 883.394L2410.68 883.394C2416.68 883.394 2420.68 886.394 2423.68 890.394C2426.68 895.394 2428.68 902.394 2427.68 911.394Z"/>
<path d="M2767.68 1351.39C2756.68 1346.39 2743.68 1351.39 2738.68 1361.39C2718.68 1405.39 2700.68 1441.39 2681.68 1469.39C2663.68 1496.39 2646.68 1516.39 2627.68 1529.39C2618.68 1535.39 2609.68 1539.39 2600.68 1542.39C2590.68 1545.39 2580.68 1547.39 2571.68 1547.39L2571.68 1547.39L2570.68 1547.39C2562.68 1547.39 2554.68 1544.39 2549.68 1538.39C2543.68 1532.39 2539.68 1521.39 2539.68 1505.39L2539.68 1503.39C2539.68 1490.39 2543.68 1472.39 2548.68 1450.39C2554.68 1428.39 2562.68 1402.39 2572.68 1374.39C2577.68 1360.39 2584.68 1339.39 2593.68 1314.39C2602.68 1289.39 2615.68 1254.39 2629.68 1214.39C2632.68 1205.39 2640.68 1184.39 2649.68 1156.39L2731.68 1156.39C2743.68 1156.39 2752.68 1147.39 2752.68 1135.39C2752.68 1124.39 2743.68 1114.39 2731.68 1114.39L2664.68 1114.39C2665.68 1111.39 2666.68 1109.39 2667.68 1106.39C2686.68 1050.39 2706.68 991.394 2711.68 979.394C2715.68 968.394 2709.68 956.394 2698.68 952.394C2687.68 948.394 2675.68 954.394 2671.68 965.394C2666.68 978.394 2646.68 1037.39 2627.68 1092.39C2624.68 1099.39 2622.68 1107.39 2619.68 1114.39L2542.68 1114.39C2530.68 1114.39 2521.68 1124.39 2521.68 1135.39C2521.68 1147.39 2530.68 1156.39 2542.68 1156.39L2605.68 1156.39C2597.68 1179.39 2591.68 1195.39 2590.68 1200.39C2577.68 1234.39 2565.68 1268.39 2554.68 1299.39C2543.68 1329.39 2535.68 1351.39 2532.68 1361.39C2522.68 1389.39 2514.68 1416.39 2508.68 1440.39C2501.68 1465.39 2497.68 1486.39 2497.68 1502.39L2497.68 1504.39L2497.68 1505.39C2497.68 1532.39 2505.68 1553.39 2518.68 1567.39C2531.68 1582.39 2550.68 1589.39 2570.68 1589.39L2571.68 1589.39L2571.68 1589.39C2584.68 1589.39 2599.68 1587.39 2613.68 1582.39C2626.68 1578.39 2639.68 1572.39 2651.68 1564.39C2674.68 1547.39 2695.68 1524.39 2716.68 1492.39C2736.68 1462.39 2756.68 1424.39 2777.68 1379.39C2782.68 1368.39 2777.68 1356.39 2767.68 1351.39Z"/>
<path d="M2884.68 1065.39C2903.68 1065.39 2918.68 1050.39 2918.68 1031.39C2918.68 1012.39 2903.68 997.394 2884.68 997.394C2865.68 997.394 2849.68 1012.39 2849.68 1031.39C2849.68 1050.39 2865.68 1065.39 2884.68 1065.39ZM2950.68 1351.39C2940.68 1346.39 2927.68 1351.39 2922.68 1362.39C2905.68 1400.39 2884.68 1449.39 2858.68 1487.39C2834.68 1521.39 2807.68 1547.39 2777.68 1547.39L2777.68 1547.39L2776.68 1547.39C2765.68 1547.39 2758.68 1543.39 2754.68 1537.39C2749.68 1529.39 2747.68 1517.39 2747.68 1505.39L2747.68 1503.39C2747.68 1490.39 2751.68 1472.39 2756.68 1450.39C2762.68 1428.39 2770.68 1402.39 2780.68 1374.39C2785.68 1360.39 2792.68 1339.39 2801.68 1314.39C2810.68 1289.39 2822.68 1255.39 2837.68 1214.39L2846.68 1189.39L2862.68 1142.39C2866.68 1131.39 2860.68 1119.39 2849.68 1116.39C2838.68 1112.39 2826.68 1118.39 2823.68 1129.39L2806.68 1175.39C2802.68 1187.39 2799.68 1195.39 2798.68 1200.39C2785.68 1233.39 2773.68 1268.39 2762.68 1299.39C2751.68 1329.39 2743.68 1351.39 2740.68 1361.39C2730.68 1389.39 2722.68 1416.39 2716.68 1440.39C2709.68 1465.39 2705.68 1486.39 2705.68 1502.39L2705.68 1505.39L2705.68 1505.39C2705.68 1525.39 2709.68 1544.39 2719.68 1560.39C2731.68 1577.39 2749.68 1589.39 2776.68 1589.39L2777.68 1589.39L2777.68 1589.39C2824.68 1589.39 2862.68 1555.39 2893.68 1510.39C2921.68 1469.39 2943.68 1419.39 2961.68 1379.39C2966.68 1368.39 2961.68 1355.39 2950.68 1351.39Z"/>
<path d="M3159.68 1351.39C3148.68 1346.39 3135.68 1351.39 3130.68 1361.39C3110.68 1405.39 3092.68 1441.39 3073.68 1469.39C3055.68 1496.39 3038.68 1516.39 3019.68 1529.39C3010.68 1535.39 3001.68 1539.39 2992.68 1542.39C2982.68 1545.39 2972.68 1547.39 2963.68 1547.39L2963.68 1547.39L2962.68 1547.39C2954.68 1547.39 2946.68 1544.39 2941.68 1538.39C2935.68 1532.39 2931.68 1521.39 2931.68 1505.39L2931.68 1503.39C2931.68 1490.39 2935.68 1472.39 2940.68 1450.39C2946.68 1428.39 2954.68 1402.39 2964.68 1374.39C2969.68 1360.39 2976.68 1339.39 2985.68 1314.39C2994.68 1289.39 3007.68 1254.39 3021.68 1214.39C3024.68 1205.39 3032.68 1184.39 3041.68 1156.39L3123.68 1156.39C3135.68 1156.39 3144.68 1147.39 3144.68 1135.39C3144.68 1124.39 3135.68 1114.39 3123.68 1114.39L3056.68 1114.39C3057.68 1111.39 3058.68 1109.39 3059.68 1106.39C3078.68 1050.39 3098.68 991.394 3103.68 979.394C3107.68 968.394 3101.68 956.394 3090.68 952.394C3079.68 948.394 3067.68 954.394 3063.68 965.394C3058.68 978.394 3038.68 1037.39 3019.68 1092.39C3016.68 1099.39 3014.68 1107.39 3011.68 1114.39L2934.68 1114.39C2922.68 1114.39 2913.68 1124.39 2913.68 1135.39C2913.68 1147.39 2922.68 1156.39 2934.68 1156.39L2997.68 1156.39C2989.68 1179.39 2983.68 1195.39 2982.68 1200.39C2969.68 1234.39 2957.68 1268.39 2946.68 1299.39C2935.68 1329.39 2927.68 1351.39 2924.68 1361.39C2914.68 1389.39 2906.68 1416.39 2900.68 1440.39C2893.68 1465.39 2889.68 1486.39 2889.68 1502.39L2889.68 1504.39L2889.68 1505.39C2889.68 1532.39 2897.68 1553.39 2910.68 1567.39C2923.68 1582.39 2942.68 1589.39 2962.68 1589.39L2963.68 1589.39L2963.68 1589.39C2976.68 1589.39 2991.68 1587.39 3005.68 1582.39C3018.68 1578.39 3031.68 1572.39 3043.68 1564.39C3066.68 1547.39 3087.68 1524.39 3108.68 1492.39C3128.68 1462.39 3148.68 1424.39 3169.68 1379.39C3174.68 1368.39 3169.68 1356.39 3159.68 1351.39Z"/>
<path d="M3525.68 1351.39C3514.68 1347.39 3502.68 1352.39 3497.68 1362.39C3464.68 1438.39 3422.68 1485.39 3379.68 1512.39C3336.68 1539.39 3290.68 1547.39 3248.68 1546.39L3246.68 1546.39C3220.68 1545.39 3197.68 1537.39 3182.68 1522.39C3166.68 1508.39 3157.68 1485.39 3158.68 1453.39L3158.68 1451.39C3160.68 1410.39 3174.68 1362.39 3194.68 1316.39C3215.68 1269.39 3244.68 1224.39 3273.68 1194.39C3284.68 1182.39 3297.68 1173.39 3309.68 1166.39C3321.68 1161.39 3333.68 1157.39 3343.68 1157.39L3346.68 1157.39C3357.68 1158.39 3367.68 1162.39 3374.68 1170.39C3382.68 1178.39 3386.68 1192.39 3386.68 1210.39C3386.68 1211.39 3386.68 1212.39 3386.68 1214.39C3386.68 1223.39 3384.68 1233.39 3380.68 1242.39C3377.68 1251.39 3373.68 1260.39 3366.68 1268.39C3360.68 1278.39 3362.68 1291.39 3371.68 1298.39C3381.68 1304.39 3394.68 1302.39 3401.68 1293.39C3409.68 1281.39 3416.68 1269.39 3420.68 1256.39C3425.68 1243.39 3428.68 1229.39 3428.68 1216.39L3428.68 1216.39L3428.68 1216.39C3428.68 1214.39 3428.68 1212.39 3428.68 1210.39C3428.68 1181.39 3420.68 1158.39 3406.68 1142.39C3391.68 1125.39 3370.68 1116.39 3348.68 1115.39L3347.68 1115.39L3344.68 1115.39L3343.68 1115.39C3326.68 1115.39 3308.68 1120.39 3291.68 1129.39C3274.68 1137.39 3257.68 1149.39 3242.68 1164.39C3210.68 1198.39 3179.68 1247.39 3156.68 1299.39C3133.68 1349.39 3118.68 1403.39 3116.68 1449.39L3116.68 1450.39L3116.68 1452.39C3115.68 1497.39 3129.68 1530.39 3153.68 1553.39C3176.68 1575.39 3208.68 1586.39 3244.68 1588.39L3245.68 1588.39L3247.68 1588.39C3297.68 1590.39 3350.68 1580.39 3401.68 1548.39C3451.68 1516.39 3498.68 1464.39 3536.68 1379.39C3540.68 1369.39 3536.68 1356.39 3525.68 1351.39Z"/>
<path d="M3924.68 1351.39C3913.68 1346.39 3901.68 1351.39 3896.68 1362.39L3895.68 1365.39C3862.68 1439.39 3814.68 1547.39 3752.68 1547.39L3751.68 1547.39C3740.68 1547.39 3733.68 1543.39 3729.68 1537.39C3724.68 1529.39 3722.68 1517.39 3722.68 1505.39L3722.68 1503.39C3722.68 1486.39 3726.68 1466.39 3732.68 1445.39C3738.68 1423.39 3746.68 1399.39 3755.68 1376.39C3757.68 1371.39 3759.68 1364.39 3762.68 1357.39C3777.68 1317.39 3800.68 1257.39 3800.68 1208.39C3800.68 1155.39 3777.68 1114.39 3706.68 1114.39C3674.68 1114.39 3644.68 1132.39 3615.68 1161.39L3628.68 1124.39C3634.68 1109.39 3640.68 1092.39 3649.68 1065.39C3652.68 1058.39 3653.68 1053.39 3655.68 1048.39C3661.68 1029.39 3671.68 1002.39 3680.68 977.394C3684.68 966.394 3678.68 954.394 3667.68 950.394C3656.68 946.394 3644.68 952.394 3640.68 962.394C3629.68 994.394 3621.68 1018.39 3615.68 1034.39L3609.68 1051.39C3605.68 1064.39 3597.68 1086.39 3589.68 1110.39C3584.68 1122.39 3580.68 1134.39 3570.68 1163.39L3570.68 1164.39C3558.68 1193.39 3528.68 1277.39 3498.68 1361.39C3497.68 1361.39 3497.68 1362.39 3497.68 1362.39L3497.68 1363.39L3496.68 1364.39C3467.68 1445.39 3437.68 1530.39 3426.68 1561.39C3422.68 1572.39 3428.68 1584.39 3439.68 1588.39C3450.68 1591.39 3462.68 1586.39 3466.68 1574.39C3478.68 1540.39 3508.68 1456.39 3536.68 1378.39C3536.68 1378.39 3536.68 1378.39 3537.68 1377.39C3557.68 1324.39 3590.68 1258.39 3627.68 1211.39C3653.68 1179.39 3681.68 1156.39 3706.68 1156.39C3745.68 1156.39 3758.68 1179.39 3758.68 1208.39C3758.68 1250.39 3737.68 1305.39 3722.68 1342.39C3720.68 1349.39 3718.68 1355.39 3715.68 1361.39C3706.68 1386.39 3698.68 1410.39 3691.68 1434.39C3685.68 1458.39 3680.68 1481.39 3680.68 1502.39L3680.68 1505.39L3680.68 1505.39C3680.68 1525.39 3684.68 1544.39 3694.68 1560.39C3705.68 1577.39 3723.68 1589.39 3751.68 1589.39L3752.68 1589.39L3752.68 1589.39C3842.68 1589.39 3896.68 1466.39 3933.68 1382.39L3935.68 1379.39C3939.68 1368.39 3935.68 1356.39 3924.68 1351.39Z"/>
</g>
<path d="M1456.61 1924.02L1456.61 1924.02" fill="#ffffff" fill-rule="nonzero" opacity="1" stroke="#007aff" stroke-linecap="butt" stroke-linejoin="round" stroke-width="10" vectornator:layerName="Curve 1"/>
<path d="M1002.39 2147.68L1002.39 2147.68" fill="#000000" fill-rule="nonzero" opacity="1" stroke="#000000" stroke-linecap="butt" stroke-linejoin="round" stroke-width="10" vectornator:layerName="Curve 2"/>
<path d="M1656.62 356.052C1635.29 356.453 1616.25 358.865 1599.53 363.271C1577.24 369.147 1565.89 377.143 1565.47 387.305C1565.27 392.386 1565.06 397.47 1564.86 402.552C1577.7 399.683 1590.54 396.823 1603.38 393.955C1629.06 388.217 1654.59 385.841 1679.99 386.877C1705.4 387.915 1733.08 395.831 1763.02 410.626C1792.95 425.421 1821.65 449.513 1849.13 482.87C1876.61 516.225 1897.2 551.855 1910.92 589.739C1924.64 627.622 1900.26 685.163 1837.73 762.344C1775.2 839.526 1649.63 964.163 1461.08 1136.29C1272.52 1308.42 1178.1 1398.7 1177.75 1407.17C1177.41 1415.64 1182.29 1420.92 1192.38 1423.03C1202.48 1425.14 1298.34 1341.69 1479.98 1172.67C1661.62 1003.66 1772.57 903.887 1812.84 873.298C1853.11 842.709 1897.59 813.123 1946.26 784.573C1994.93 756.024 2023.68 736.822 2032.56 727.006C2041.45 717.19 2046.22 703.808 2046.91 686.871C2047.6 669.934 2041.48 654.427 2028.48 640.323C2015.48 626.221 1999.68 617.937 1981.12 615.482C1962.56 613.028 1943.21 589.361 1922.99 544.426C1902.77 499.491 1879.61 463.736 1853.55 437.225C1827.49 410.713 1799.43 390.907 1769.43 377.805C1739.43 364.705 1709.2 357.534 1678.71 356.289C1671.09 355.978 1663.73 355.918 1656.62 356.052ZM1971.77 658.372C1976 658.545 1980.21 658.722 1984.45 658.895C1992.92 659.241 1999.55 662.885 2004.35 669.867C2009.15 676.849 2010.6 683.728 2008.63 690.433C2006.65 697.139 2002.19 702.047 1995.28 705.157C1991.82 706.713 1988.38 708.257 1984.92 709.812C1982.73 701.24 1980.52 692.641 1978.32 684.069C1976.13 675.496 1973.96 666.945 1971.77 658.372ZM1944.88 692.903C1947.22 698.088 1949.58 703.297 1951.91 708.482C1956.58 718.852 1945.83 732.83 1919.66 750.422C1906.58 759.219 1893.47 767.987 1880.38 776.783C1891.13 762.802 1901.88 748.824 1912.63 734.843C1923.38 720.862 1934.13 706.884 1944.88 692.903ZM2389.65 1087.32C2389.59 1088.94 2389.6 1089.86 2389.51 1091.93C2389.95 1092.01 2390.35 1092.29 2390.79 1092.4C2391.17 1090.87 2391.56 1089.33 2391.93 1087.8C2391.17 1087.64 2390.41 1087.48 2389.65 1087.32Z" fill="#ffffff" fill-rule="nonzero" opacity="1" stroke="none" vectornator:layerName="Curve 3"/>
<path d="M6045.67 583.962C6047.23 585.536 6048.79 587.11 6050.36 588.684" fill="#000000" fill-rule="nonzero" opacity="1" stroke="#007aff" stroke-linecap="round" stroke-linejoin="round" stroke-width="10" vectornator:layerName="Curve 4"/>
</g>
</svg>
